<svg width="24" height="25" viewBox="0 0 24 25" fill="none" xmlns="http://www.w3.org/2000/svg">
<path d="M18 20.5C16.8954 20.5 16 19.6046 16 18.5C16 17.3954 16.8954 16.5 18 16.5C19.1046 16.5 20 17.3954 20 18.5C20 19.6046 19.1046 20.5 18 20.5ZM12 20.5C10.8954 20.5 10 19.6046 10 18.5C10 17.3954 10.8954 16.5 12 16.5C13.1046 16.5 14 17.3954 14 18.5C14 19.6046 13.1046 20.5 12 20.5ZM6 20.5C4.89543 20.5 4 19.6046 4 18.5C4 17.3954 4.89543 16.5 6 16.5C7.10457 16.5 8 17.3954 8 18.5C8 19.6046 7.10457 20.5 6 20.5ZM18 14.5C16.8954 14.5 16 13.6046 16 12.5C16 11.3954 16.8954 10.5 18 10.5C19.1046 10.5 20 11.3954 20 12.5C20 13.0304 19.7893 13.5391 19.4142 13.9142C19.0391 14.2893 18.5304 14.5 18 14.5ZM12 14.5C10.8954 14.5 10 13.6046 10 12.5C10 11.3954 10.8954 10.5 12 10.5C13.1046 10.5 14 11.3954 14 12.5C14 13.0304 13.7893 13.5391 13.4142 13.9142C13.0391 14.2893 12.5304 14.5 12 14.5ZM6 14.5C4.89543 14.5 4 13.6046 4 12.5C4 11.3954 4.89543 10.5 6 10.5C7.10457 10.5 8 11.3954 8 12.5C8 13.0304 7.78929 13.5391 7.41421 13.9142C7.03914 14.2893 6.53043 14.5 6 14.5ZM18 8.5C16.8954 8.5 16 7.60457 16 6.5C16 5.39543 16.8954 4.5 18 4.5C19.1046 4.5 20 5.39543 20 6.5C20 7.03043 19.7893 7.53914 19.4142 7.91421C19.0391 8.28929 18.5304 8.5 18 8.5ZM12 8.5C10.8954 8.5 10 7.60457 10 6.5C10 5.39543 10.8954 4.5 12 4.5C13.1046 4.5 14 5.39543 14 6.5C14 7.03043 13.7893 7.53914 13.4142 7.91421C13.0391 8.28929 12.5304 8.5 12 8.5ZM6 8.5C4.89543 8.5 4 7.60457 4 6.5C4 5.39543 4.89543 4.5 6 4.5C7.10457 4.5 8 5.39543 8 6.5C8 7.03043 7.78929 7.53914 7.41421 7.91421C7.03914 8.28929 6.53043 8.5 6 8.5Z" fill="#0C4B86"/>
</svg>
