<svg width="20" height="20" viewBox="0 0 20 20" fill="none" xmlns="http://www.w3.org/2000/svg">
<path d="M3.78506 10.2074V4.01895C3.78506 3.46892 4.23253 3.02142 4.78259 3.02142C5.25194 3.02142 5.64634 3.34733 5.75209 3.78464C5.32325 4.05105 4.99744 4.44998 4.82212 4.93176C4.61509 5.50058 4.64194 6.11589 4.89778 6.66445L5.11828 7.13736L9.22572 5.22201L9.00522 4.74914C8.74944 4.20058 8.29528 3.78445 7.7265 3.57742C7.40641 3.46086 7.0715 3.41845 6.74213 3.44923C6.49487 2.6003 5.71034 1.97792 4.78262 1.97792C3.65719 1.97792 2.74163 2.89351 2.74163 4.01892V10.2073H2V11.2508H2.75525C2.81244 12.344 3.05444 13.2463 3.49116 13.9968C3.87909 14.6635 4.41516 15.1871 5.08444 15.5529C5.23578 15.6356 5.39447 15.71 5.55972 15.7766L4.58416 17.2158L5.44788 17.8013L6.61728 16.0763C7.02125 16.1492 7.4535 16.1865 7.91306 16.1865H12.087C12.5466 16.1865 12.9788 16.1492 13.3827 16.0763L14.5522 17.8013L15.4159 17.2158L14.4403 15.7766C14.6056 15.71 14.7643 15.6356 14.9156 15.5529C15.5849 15.187 16.1209 14.6635 16.5089 13.9968C16.9456 13.2463 17.1876 12.344 17.2448 11.2508H18V10.2073H3.78506V10.2074Z" fill="#595959"/>
</svg>
