<svg width="20" height="20" viewBox="0 0 20 20" fill="none" xmlns="http://www.w3.org/2000/svg">
<path d="M10.6002 13.15C10.4831 13.2672 10.3242 13.3332 10.1585 13.3333H9.84187C9.67652 13.3314 9.5183 13.2657 9.4002 13.15L5.1252 8.86664C5.04632 8.78841 5.00195 8.68191 5.00195 8.57081C5.00195 8.45971 5.04632 8.35321 5.1252 8.27497L5.71687 7.68331C5.79367 7.60492 5.89879 7.56075 6.00854 7.56075C6.11828 7.56075 6.2234 7.60492 6.3002 7.68331L10.0002 11.3916L13.7002 7.68331C13.7784 7.60443 13.8849 7.56006 13.996 7.56006C14.1071 7.56006 14.2136 7.60443 14.2919 7.68331L14.8752 8.27497C14.9541 8.35321 14.9985 8.45971 14.9985 8.57081C14.9985 8.68191 14.9541 8.78841 14.8752 8.86664L10.6002 13.15Z" fill="#595959"/>
</svg>
