<svg width="24" height="22" viewBox="0 0 24 22" fill="none" xmlns="http://www.w3.org/2000/svg">
<path d="M12.7199 14.3074C12.5793 14.4305 12.3887 14.4997 12.1899 14.4999H11.8099C11.6114 14.4979 11.4216 14.4289 11.2799 14.3074L6.14985 9.8099C6.0552 9.72775 6.00195 9.61593 6.00195 9.49928C6.00195 9.38262 6.0552 9.2708 6.14985 9.18865L6.85985 8.5674C6.95202 8.48509 7.07816 8.43871 7.20985 8.43871C7.34154 8.43871 7.46769 8.48509 7.55985 8.5674L11.9999 12.4611L16.4399 8.5674C16.5337 8.48458 16.6615 8.43799 16.7949 8.43799C16.9282 8.43799 17.056 8.48458 17.1499 8.5674L17.8499 9.18865C17.9445 9.2708 17.9978 9.38262 17.9978 9.49928C17.9978 9.61593 17.9445 9.72775 17.8499 9.8099L12.7199 14.3074Z" fill="#595959"/>
</svg>
