<svg width="20" height="20" viewBox="0 0 20 20" fill="none" xmlns="http://www.w3.org/2000/svg">
<path d="M16 10.16V15.3333C16 15.7015 15.7015 16 15.3333 16H12.6667C12.2985 16 12 15.7015 12 15.3333V11.6667C12 11.4826 11.8508 11.3333 11.6667 11.3333H8.33333C8.14924 11.3333 8 11.4826 8 11.6667V15.3333C8 15.7015 7.70152 16 7.33333 16H4.66667C4.29848 16 4 15.7015 4 15.3333V10.16C4.00047 9.62975 4.21149 9.12138 4.58667 8.74667L9.14 4.19333C9.26417 4.07017 9.43177 4.00074 9.60667 4H10.3933C10.5682 4.00074 10.7358 4.07017 10.86 4.19333L15.4133 8.74667C15.7885 9.12138 15.9995 9.62975 16 10.16Z" fill="#0C4B86"/>
</svg>
