<svg width="14" height="14" viewBox="0 0 14 14" fill="none" xmlns="http://www.w3.org/2000/svg">
<path d="M7.30117 12.9603L7.2793 12.9568C7.28236 12.9592 7.28596 12.9607 7.28978 12.9613C7.2936 12.962 7.29752 12.9616 7.30117 12.9603Z" fill="#0C4B86"/>
<path d="M12.2746 5.13461C12.2684 5.10162 12.2513 5.07165 12.2261 5.04948C12.2009 5.0273 12.169 5.01418 12.1355 5.0122C12.1019 5.01022 12.0687 5.0195 12.0411 5.03855C12.0134 5.05761 11.9929 5.08535 11.9829 5.11738C11.9732 5.14779 11.9542 5.17436 11.9285 5.19328C11.9028 5.21219 11.8718 5.22248 11.8398 5.22266H11.4168C11.3895 5.22268 11.3626 5.21521 11.3392 5.20105L10.7272 4.8341C10.7038 4.81994 10.6769 4.81247 10.6496 4.8125H9.67067C9.64087 4.81247 9.61174 4.82132 9.587 4.83793L8.37977 5.64266C8.3589 5.65655 8.34183 5.67543 8.33008 5.69758C8.31834 5.71973 8.3123 5.74446 8.31251 5.76953V6.91086C8.31247 6.93821 8.31989 6.96506 8.33395 6.98852C8.34802 7.01198 8.36821 7.03117 8.39235 7.04402L9.97528 7.88895C9.99906 7.90174 10.019 7.92065 10.033 7.94372C10.0471 7.96679 10.0547 7.99319 10.0551 8.0202L10.0625 8.6625C10.0629 8.68909 10.0704 8.7151 10.084 8.7379C10.0977 8.76071 10.1172 8.7795 10.1404 8.79238L10.7764 9.1443C10.8 9.15739 10.8197 9.17653 10.8334 9.19974C10.8471 9.22296 10.8543 9.24941 10.8544 9.27637V10.6053C10.8544 10.6343 10.8628 10.6627 10.8785 10.6871C10.8943 10.7115 10.9167 10.7309 10.9432 10.7428C10.9697 10.7548 10.999 10.7588 11.0278 10.7545C11.0565 10.7502 11.0833 10.7377 11.1051 10.7185C11.3616 10.4926 11.7294 10.1629 11.7783 10.0874C11.8593 9.96215 11.9352 9.83391 12.0061 9.70266C12.1529 9.43071 12.2773 9.14721 12.378 8.855C12.7247 7.85121 12.4507 6.0468 12.2746 5.13461Z" fill="#0C4B86"/>
<path d="M7.83087 8.27971L6.15388 7.0219C6.13495 7.0077 6.11192 7.00003 6.08826 7.00003H5.29255C5.27894 7.00004 5.26546 6.99737 5.25289 6.99216C5.24031 6.98695 5.22889 6.97931 5.21927 6.96967L4.84412 6.59452C4.83395 6.58436 4.82188 6.57631 4.80861 6.57082C4.79533 6.56533 4.7811 6.56251 4.76673 6.56253H3.31232C3.29182 6.56253 3.27178 6.55645 3.25474 6.54506C3.2377 6.53367 3.22441 6.51749 3.21657 6.49855C3.20873 6.47961 3.20667 6.45878 3.21067 6.43867C3.21467 6.41857 3.22454 6.4001 3.23904 6.38561L3.46927 6.15538C3.47889 6.14574 3.49031 6.1381 3.50289 6.13289C3.51546 6.12768 3.52894 6.12501 3.54255 6.12503H4.42767C4.47534 6.12503 4.52171 6.10945 4.55971 6.08068C4.59772 6.0519 4.62529 6.0115 4.63822 5.96561L4.82662 5.29569C4.83063 5.28129 4.83756 5.26787 4.84696 5.25626C4.85637 5.24464 4.86806 5.23507 4.8813 5.22815L5.63244 4.84151C5.64934 4.83278 5.66351 4.81956 5.6734 4.8033C5.68328 4.78705 5.68851 4.76839 5.68849 4.74936V4.40757C5.68852 4.38636 5.69501 4.36566 5.70708 4.34823L6.1063 3.77346C6.11828 3.7562 6.13527 3.74302 6.15498 3.73573L6.71361 3.526C6.73337 3.5186 6.7504 3.50533 6.76242 3.48799C6.77444 3.47064 6.78088 3.45004 6.78087 3.42893V3.11721C6.78087 3.10012 6.77665 3.08329 6.76859 3.06822C6.76053 3.05315 6.74888 3.0403 6.73466 3.03081L6.17466 2.65839C6.15928 2.64826 6.14149 2.64238 6.12311 2.64132C6.10472 2.64026 6.08638 2.64408 6.06994 2.65237L5.30759 3.03354C5.29015 3.04215 5.27064 3.04567 5.25129 3.04369C5.23194 3.0417 5.21355 3.0343 5.19822 3.02233L4.83673 2.73659C4.8244 2.72667 4.81449 2.71406 4.80777 2.69973C4.80105 2.68539 4.7977 2.66972 4.79796 2.65389C4.79822 2.63806 4.8021 2.6225 4.80929 2.6084C4.81649 2.5943 4.82681 2.58203 4.83947 2.57253L5.13314 2.35624C5.14643 2.34649 5.1572 2.3337 5.16455 2.31893C5.17189 2.30417 5.1756 2.28787 5.17536 2.27138C5.17512 2.2549 5.17093 2.23871 5.16316 2.22417C5.15539 2.20963 5.14425 2.19716 5.13068 2.1878L4.67322 1.8687C4.65738 1.85755 4.63873 1.85107 4.61939 1.85001C4.60005 1.84895 4.58081 1.85334 4.56384 1.86268C4.39841 1.95319 3.91306 2.22116 3.7408 2.34174C2.94375 2.90069 2.30231 3.65355 1.87704 4.52924C1.82728 4.63206 1.76576 4.73678 1.75974 4.84971C1.75372 4.96264 1.66513 5.21475 1.62822 5.31674C1.62324 5.33053 1.62125 5.34522 1.62238 5.35983C1.62351 5.37445 1.62774 5.38865 1.63478 5.40151L2.61068 7.19471C2.61946 7.21101 2.6325 7.22462 2.64841 7.23409L3.67517 7.85042C3.68849 7.85835 3.69985 7.86918 3.70842 7.8821C3.71699 7.89502 3.72254 7.90971 3.72466 7.92506L3.93029 9.41639C3.9323 9.43068 3.93725 9.4444 3.94482 9.45669C3.9524 9.46897 3.96244 9.47955 3.97431 9.48776L4.77548 10.0385C4.79869 10.0544 4.81485 10.0787 4.8206 10.1063L5.24552 12.1242C5.2479 12.1361 5.25244 12.1474 5.25892 12.1576C5.29884 12.2221 5.45798 12.4584 5.64994 12.4934C5.63216 12.4983 5.6163 12.5095 5.59853 12.5147C5.64464 12.5228 5.69028 12.5334 5.73525 12.5464C5.78994 12.5612 5.84462 12.5738 5.89931 12.5855C5.9849 12.6025 5.99337 12.6156 6.03439 12.5396C6.08908 12.4379 6.15169 12.4029 6.19845 12.3903C6.21775 12.3859 6.2354 12.3761 6.24938 12.362C6.26336 12.348 6.27309 12.3303 6.27748 12.311L6.55283 11.0346C6.55862 11.0078 6.57423 10.9842 6.59658 10.9684L7.82705 10.0962C7.84135 10.086 7.85301 10.0726 7.86105 10.0571C7.86909 10.0415 7.87328 10.0243 7.87326 10.0067V8.36721C7.87342 8.35035 7.86967 8.33367 7.86232 8.31849C7.85497 8.30332 7.84421 8.29004 7.83087 8.27971Z" fill="#0C4B86"/>
<path d="M7.16418 1.3125C7.16418 1.3125 7.06437 1.31824 7.04414 1.31879C6.89594 1.32316 6.7481 1.33337 6.60062 1.34941C6.06302 1.40774 5.53652 1.54263 5.03711 1.75C5.10355 1.79594 4.98926 1.83805 4.98926 1.83805L5.16809 2.1875H6.12512L6.78137 2.51562L7.35559 2.1875L7.16418 1.3125Z" fill="#0C4B86"/>
<path d="M9.68573 3.28358L10.1262 2.90077C10.14 2.8888 10.1506 2.87358 10.157 2.85647C10.1634 2.83937 10.1654 2.82094 10.1628 2.80286C10.1603 2.78479 10.1532 2.76763 10.1424 2.75298C10.1315 2.73832 10.1171 2.72661 10.1005 2.71894L9.5862 2.48023C9.56007 2.46804 9.53019 2.46666 9.50305 2.47639C9.47591 2.48612 9.45371 2.50617 9.44128 2.53218L9.22937 2.97542C9.21783 2.99965 9.21561 3.02728 9.22312 3.05304C9.23064 3.07881 9.24736 3.10091 9.27011 3.11515L9.55612 3.29398C9.576 3.30634 9.59931 3.312 9.62264 3.31013C9.64597 3.30826 9.66808 3.29896 9.68573 3.28358Z" fill="#0C4B86"/>
<path d="M11.7486 3.8462L11.5891 3.60011C11.5867 3.59628 11.5845 3.59245 11.5823 3.58835C11.5536 3.52956 11.316 3.04968 11.1175 2.86347C10.9684 2.72265 10.9261 2.76312 10.9143 2.79429C10.9076 2.81153 10.8963 2.82664 10.8818 2.83804L10.0932 3.47542C10.0737 3.49113 10.0495 3.49972 10.0245 3.49976H9.6163C9.60193 3.49975 9.5877 3.50256 9.57442 3.50805C9.56115 3.51354 9.54908 3.52159 9.53891 3.53175L9.21079 3.85987C9.20062 3.87003 9.19255 3.88209 9.18705 3.89537C9.18154 3.90865 9.17871 3.92288 9.17871 3.93726C9.17871 3.95163 9.18154 3.96586 9.18705 3.97914C9.19255 3.99242 9.20062 4.00448 9.21079 4.01464L9.53891 4.34276C9.54908 4.35292 9.56115 4.36097 9.57442 4.36646C9.5877 4.37195 9.60193 4.37477 9.6163 4.37476H11.6717C11.6865 4.37477 11.7011 4.37179 11.7147 4.36601C11.7283 4.36022 11.7405 4.35175 11.7508 4.3411C11.761 4.33044 11.7689 4.31783 11.7741 4.30402C11.7794 4.29021 11.7817 4.27548 11.7811 4.26073L11.7661 3.90116C11.7653 3.88161 11.7592 3.86263 11.7486 3.8462Z" fill="#0C4B86"/>
<path d="M7 1.96875C8.16401 1.96865 9.29205 2.37217 10.1919 3.11054C11.0918 3.8489 11.7077 4.87644 11.9349 6.01807C12.1621 7.1597 11.9864 8.34478 11.4378 9.37139C10.8891 10.398 10.0015 11.2026 8.92612 11.6481C7.85075 12.0937 6.65416 12.1525 5.54025 11.8147C4.42634 11.4769 3.46402 10.7633 2.81727 9.79548C2.17052 8.82769 1.87934 7.66557 1.99336 6.50716C2.10739 5.34875 2.61955 4.26571 3.44258 3.44258C3.90862 2.97387 4.46301 2.60227 5.07364 2.34929C5.68428 2.0963 6.33904 1.96696 7 1.96875ZM7 0.875C3.61758 0.875 0.875 3.61758 0.875 7C0.875 10.3824 3.61758 13.125 7 13.125C10.3824 13.125 13.125 10.3824 13.125 7C13.125 3.61758 10.3824 0.875 7 0.875Z" fill="#0C4B86"/>
</svg>
