<svg width="96" height="16" viewBox="0 0 96 16" fill="none" xmlns="http://www.w3.org/2000/svg">
<g clip-path="url(#clip0)">
<path d="M23.3595 10.5426V9.03H28.3436V7.10186H23.3579V4.2934H28.6617V2.37018H21.3184V6.50403V10.4556C21.3184 12.4987 22.1873 13.898 24.2268 14.1854C24.2678 14.1953 24.3072 14.2035 24.3449 14.2035H24.3826C24.5908 14.2265 24.8056 14.2429 25.0286 14.2429H28.8043V12.3213H25.0466C24.3957 12.3213 23.3595 12.0011 23.3595 10.5426Z" fill="#041E50"/>
<path d="M30.2534 7.98094V14.2466H32.293V7.93988V2.36731H30.2534V7.98094Z" fill="#041E50"/>
<path d="M38.146 5.38593C35.5654 5.38593 33.6357 7.16626 33.6357 9.93858V10.0076C33.6357 12.7126 35.4982 14.4584 38.1985 14.4584C39.497 14.4584 40.7102 14.0987 41.8218 12.9178L40.5922 11.7189C39.9429 12.3693 39.3101 12.7109 38.2673 12.7109C36.7475 12.7109 35.7392 11.8207 35.6704 10.451H42.3677C42.4022 10.1094 42.4022 9.73164 42.4022 9.73164C42.4022 7.319 40.7102 5.38593 38.146 5.38593ZM35.7212 9.01393C35.8064 7.96938 36.8656 7.13177 38.1477 7.13177C39.3445 7.13177 40.3184 7.98744 40.3184 9.01393H35.7212Z" fill="#041E50"/>
<path d="M48.1375 7.21742C49.0605 7.21742 49.7442 7.55903 50.3246 8.15849L51.5886 6.83967C50.5984 5.7787 49.418 5.35004 48.1375 5.35004C45.5405 5.35004 43.4551 7.28475 43.4551 9.92076C43.4551 12.5568 45.5389 14.4915 48.1375 14.4915C49.4196 14.4915 50.5984 14.0628 51.5886 13.0019L50.3246 11.683C49.7442 12.2825 49.0605 12.6241 48.1375 12.6241C46.6341 12.6241 45.4881 11.4777 45.4881 9.91912C45.4897 8.36379 46.6341 7.21742 48.1375 7.21742Z" fill="#041E50"/>
<path d="M54.9004 10.5463H54.8987V7.51451H56.7563V5.65699H54.902V2.36896H52.8608V6.62927V10.6679H52.8674C52.9264 12.5977 53.8019 13.9116 55.771 14.1891C55.812 14.199 55.8513 14.2072 55.889 14.2072H55.9267C56.1349 14.2302 56.3497 14.2466 56.5727 14.2466H56.7891L56.7973 12.325H56.5907C55.9382 12.325 54.9004 12.0031 54.9004 10.5463Z" fill="#041E50"/>
<path d="M60.4974 6.93496V5.6572H58.4727V9.8666V14.2468H60.4974V9.73028C60.4974 8.3162 61.3992 7.42932 62.8108 7.42932C63.1338 7.42932 63.424 7.46381 63.6617 7.51472V5.5373C63.5764 5.52088 63.2715 5.48639 63.0502 5.48639C61.8238 5.48639 60.9057 6.04972 60.4974 6.93496Z" fill="#041E50"/>
<path d="M68.6523 5.40253C66.0488 5.40253 63.9731 7.3783 63.9731 9.9519C63.9731 12.5239 66.0488 14.5013 68.6523 14.5013C71.2378 14.5013 73.3298 12.5239 73.3298 9.9519C73.3298 7.3783 71.2378 5.40253 68.6523 5.40253ZM68.6523 12.6438C67.139 12.6438 65.9996 11.4678 65.9996 9.9519C65.9996 8.43435 67.139 7.25841 68.6523 7.25841C70.1492 7.25841 71.305 8.43435 71.305 9.9519C71.305 11.4678 70.1492 12.6438 68.6523 12.6438Z" fill="#041E50"/>
<path d="M74.5859 7.77564V14.245H76.6288V7.85776V2.36731H74.5859V7.77564Z" fill="#041E50"/>
<path d="M83.9902 10.6499C83.9902 12.013 83.1901 12.5928 82.1179 12.5928C81.0456 12.5928 80.2472 12.013 80.2472 10.6679V5.65704H78.188V8.14524V10.8387C78.188 13.2924 79.9734 14.4684 82.1015 14.4684C84.2443 14.4684 86.0478 13.276 86.0478 10.7878V8.14524V5.65704H83.9902V10.6499Z" fill="#041E50"/>
<path d="M93.7714 11.499L92.4844 9.69564L94.078 7.52114L95.4437 5.65704H93.2156L91.3613 8.23064L89.489 5.65704H87.279L88.5463 7.39467L90.2383 9.71206L88.466 12.1871L86.9888 14.245H89.1841L91.3613 11.2115L93.5386 14.245H95.7322L93.7714 11.499Z" fill="#041E50"/>
<path d="M0.160156 16.0816H16.0287V-0.081665H0.160156V16.0816ZM10.3312 1.15273C13.1365 2.08848 15.1631 4.79729 15.1707 7.9961C15.1783 11.144 13.1919 13.8451 10.3312 14.8428V1.15273ZM8.09172 0.786614C8.59892 0.786614 9.13869 0.855192 9.58833 0.946997C9.58833 4.60815 6.11073 7.62224 2.52236 7.62224L1.02141 7.62003C1.26795 3.86596 4.31763 0.786614 8.09172 0.786614ZM2.52344 8.38433C6.11182 8.38433 9.58724 11.3951 9.58724 15.0529C9.13869 15.1459 8.57177 15.2155 8.09172 15.2155C4.31546 15.21 1.1626 12.1218 1.02032 8.38433H2.52344Z" fill="#041E50"/>
</g>
<defs>
<clipPath id="clip0">
<rect width="96" height="16" fill="white"/>
</clipPath>
</defs>
</svg>
