<svg width="30" height="30" viewBox="0 0 30 30" fill="none" xmlns="http://www.w3.org/2000/svg">
<path fill-rule="evenodd" clip-rule="evenodd" d="M16.2247 4.0782C16.0874 4.12299 15.5226 4.35285 14.9695 4.58893L13.9639 5.01821L12.8133 4.81902C11.4437 4.58194 11.1797 4.57856 10.7202 4.79218C10.557 4.8681 10.3448 5.00869 10.2487 5.10459C10.1526 5.20048 9.78273 5.70757 9.42675 6.23148C9.07078 6.75539 8.75416 7.20415 8.72316 7.22878C8.69215 7.25341 8.17744 7.47957 7.57934 7.73135C6.45536 8.20456 6.19771 8.35549 5.95567 8.6826C5.66398 9.07669 5.63838 9.21318 5.59167 10.6225L5.54904 11.9081L4.87001 12.9116C4.49651 13.4636 4.15978 13.9894 4.12165 14.08C3.94662 14.4963 3.96196 15.0808 4.15801 15.4656C4.21022 15.5681 4.51067 16.068 4.8257 16.5765L5.39847 17.5012V18.8998V20.2983L5.54741 20.5996C5.78341 21.0771 5.9771 21.217 7.25206 21.831L8.36841 22.3686L9.00546 23.4135C10.0801 25.1763 10.2221 25.2414 12.4103 24.9741L13.4756 24.8439L14.5396 25.3566C15.1248 25.6385 15.7062 25.8995 15.8316 25.9365C16.1423 26.0281 16.4315 26.0209 16.7838 25.9128C17.1179 25.8103 17.2138 25.7431 18.3252 24.8326L19.1216 24.1802L20.3311 24.0356C21.6154 23.8822 21.8544 23.8239 22.1879 23.5835C22.5857 23.2966 22.6805 23.1132 23.1117 21.795L23.5073 20.5859L24.4688 19.7969C24.9977 19.3629 25.4844 18.9302 25.5506 18.8354C25.7586 18.537 25.8605 18.2113 25.8619 17.8395C25.863 17.5602 25.8104 17.3086 25.5606 16.3969C25.3942 15.7895 25.2579 15.2617 25.2579 15.2241C25.2579 15.1865 25.4233 14.6399 25.6254 14.0094C26.0313 12.7438 26.0692 12.4866 25.9194 12.016C25.7828 11.587 25.7268 11.5263 24.1369 10.0812L23.7648 9.74295L23.4438 8.55003C23.2601 7.86789 23.0752 7.27659 23.0117 7.16906C22.8493 6.89359 22.4366 6.53856 22.1598 6.43603C22.0288 6.38755 21.3935 6.26075 20.748 6.15426L19.5744 5.96071L18.6826 5.15218C18.1921 4.70747 17.7043 4.29317 17.5985 4.23151C17.1876 3.99191 16.6673 3.93381 16.2247 4.0782ZM16.4063 8.70253C17.1927 8.84087 17.9457 8.98792 18.0796 9.02924C18.6475 9.20466 18.867 9.41264 20.353 11.1831C21.2272 12.2246 21.4311 12.5334 21.5322 12.9693C21.5946 13.2388 21.5946 16.7568 21.5322 17.0263C21.4311 17.4623 21.2272 17.7711 20.353 18.8126C18.8763 20.5719 18.6861 20.7546 18.1295 20.9478C17.9931 20.9952 17.1666 21.1588 16.2928 21.3114C14.5045 21.6237 14.1474 21.6482 13.6746 21.4911C13.5168 21.4386 12.725 21.0168 11.915 20.5536C10.2757 19.6162 10.0026 19.4072 9.73974 18.8895C9.51132 18.4395 8.51394 15.6605 8.45625 15.3133C8.41653 15.0745 8.41662 14.9209 8.45643 14.6811C8.51503 14.3285 9.57056 11.3954 9.7647 11.0457C10.0263 10.5744 10.3324 10.3466 11.9148 9.44525C12.7249 8.98382 13.4796 8.57078 13.5919 8.52734C13.8557 8.42545 14.3085 8.38079 14.6814 8.41994C14.8437 8.43699 15.6199 8.56415 16.4063 8.70253ZM17.3596 12.385C17.2083 12.4528 16.7516 12.8768 15.6004 14.0184L14.0456 15.5602L13.4216 14.9424C13.0465 14.5712 12.7302 14.297 12.6288 14.2553C12.0368 14.0119 11.4131 14.4217 11.4131 15.054C11.4131 15.1992 11.4422 15.3728 11.4778 15.4399C11.5133 15.5069 12.0087 16.0216 12.5785 16.5836C13.4293 17.4228 13.6471 17.6144 13.7962 17.6547C14.3287 17.7985 14.3386 17.7912 16.4682 15.6834C17.4884 14.6737 18.3821 13.7574 18.4541 13.6471C18.5607 13.484 18.5852 13.3972 18.5852 13.1825C18.5852 12.8909 18.522 12.7361 18.3282 12.5532C18.049 12.2897 17.7054 12.23 17.3596 12.385Z" fill="#1374CF"/>
</svg>
