<svg width="20" height="20" viewBox="0 0 20 20" fill="none" xmlns="http://www.w3.org/2000/svg">
<path d="M10.8183 10.6427C12.0828 10.4704 12.7334 9.74828 13.063 9.12995C13.4513 8.40141 13.4625 7.69206 13.4625 7.61359L12.2886 7.61011C12.2885 7.61525 12.2792 8.12621 12.0095 8.60992C11.7561 9.06449 11.3636 9.34303 10.8183 9.45304V4.39964C12.0828 4.22727 12.7334 3.5052 13.063 2.88687C13.4513 2.15833 13.4625 1.44898 13.4625 1.37048H12.2886C12.2886 1.37522 12.2774 1.86509 12.027 2.33471C11.7747 2.80819 11.3764 3.09707 10.8182 3.20971V1H9.64434V6.33148C9.09893 6.22148 8.70652 5.9429 8.45311 5.48836C8.18343 5.00465 8.17411 4.49365 8.17404 4.48855L7.58707 4.49204H7.00003C7.00003 4.57054 7.01125 5.27985 7.39951 6.00839C7.7291 6.62672 8.37967 7.3488 9.64424 7.52117V12.5746C9.09882 12.4646 8.70641 12.186 8.453 11.7314C8.18332 11.2477 8.17401 10.7367 8.17394 10.7316L7.58697 10.7351H7C7 10.8136 7.01121 11.5229 7.39948 12.2515C7.72907 12.8698 8.37963 13.5919 9.6442 13.7642V17.8261H7.19477V19H13.2676V17.8261H10.8183V10.6427Z" fill="#595959"/>
</svg>
