<svg width="20" height="20" viewBox="0 0 20 20" fill="none" xmlns="http://www.w3.org/2000/svg">
<path d="M9.99997 17.1428C6.05508 17.1428 2.85712 13.9449 2.85712 9.99997C2.85712 6.05508 6.05508 2.85712 9.99997 2.85712C13.9449 2.85712 17.1428 6.05508 17.1428 9.99997C17.1385 13.9431 13.9431 17.1385 9.99997 17.1428ZM4.28569 10.1228C4.31949 13.2666 6.88648 15.7925 10.0304 15.7757C13.1742 15.7587 15.7139 13.2053 15.7139 10.0614C15.7139 6.91748 13.1742 4.3641 10.0304 4.34711C6.88648 4.3303 4.31949 6.85623 4.28569 9.99997V10.1228ZM11.4285 13.5714H9.28569V10.7143H8.5714V9.28569H10.7143V12.1428H11.4285V13.5714ZM10.7143 7.85712H9.28569V6.42854H10.7143V7.85712Z" fill="#1374CF"/>
</svg>
