<svg width="23" height="22" viewBox="0 0 23 22" fill="none" xmlns="http://www.w3.org/2000/svg">
<path d="M11.1947 21.6792C17.3776 21.6792 22.3893 16.8241 22.3893 10.8402C22.3893 4.8525 17.3776 0 11.1947 0C5.01175 0 0 4.8525 0 10.8402C0 16.8241 5.01175 21.6792 11.1947 21.6792Z" fill="#A51B37"/>
<path d="M10.7502 6.08582V15.5891H13.868V14.7399H11.6391V6.08582H10.7502Z" fill="white"/>
<path d="M7.62066 8.67744C8.36187 8.67744 8.9646 8.09387 8.9646 7.37876C8.9646 6.66238 8.36187 6.08008 7.62066 6.08008C6.88209 6.08008 6.27936 6.66238 6.27936 7.37876C6.27936 8.09387 6.88209 8.67744 7.62066 8.67744Z" fill="white"/>
<path d="M11.6393 1.77103C11.5272 1.76593 11.3043 1.76465 11.1949 1.76465C6.03143 1.76465 1.82816 5.83436 1.82816 10.8375C1.82816 13.26 2.79753 15.5381 4.56615 17.2505C6.34137 18.9668 8.69557 19.9104 11.1949 19.9104C13.6955 19.9104 16.0497 18.9668 17.8222 17.2505C19.5909 15.5381 20.5629 13.26 20.5629 10.8375V10.4251H20.1883H13.8748V11.2692H19.674V11.3905C19.3759 15.6683 15.6856 19.0613 11.1949 19.0613C8.9277 19.0613 6.79638 18.207 5.18999 16.6542C3.58491 15.1001 2.70126 13.0339 2.70126 10.8375C2.70126 8.64243 3.58491 6.57501 5.18999 5.02093C6.79638 3.46558 8.9277 2.61128 11.1949 2.61128C11.2977 2.61128 11.5378 2.61384 11.6393 2.61639V1.77103Z" fill="white"/>
</svg>
