<svg width="151" height="22" viewBox="0 0 151 22" fill="none" xmlns="http://www.w3.org/2000/svg">
<path d="M56.3868 3.99946V17.9747H66.0436V15.5459H59.3542V11.9627H65.586V9.59005H59.3542V6.38868L65.8062 6.38995V3.99946H56.3868ZM67.1752 17.9747H70.082V3.93944H67.1752V17.9747ZM80.3561 12.7289C80.3561 9.95399 79.0623 8.00788 75.8574 8.00788C72.6525 8.00788 70.9789 9.85949 70.9789 13.0596C70.9789 16.4512 72.2542 18.2071 75.9959 18.2071C77.7672 18.2071 79.4012 17.6861 80.1781 17.1842L79.64 15.353C78.7827 15.777 77.5298 16.086 76.5142 16.086C75.4987 16.086 74.743 15.7974 74.4238 15.4692C74.0453 15.0644 73.8659 14.4094 73.8659 13.7351H80.3561V12.7289ZM77.5086 11.941H73.8659C73.9068 10.5925 74.5821 9.93739 75.777 9.93739C77.0945 9.93739 77.5086 10.7649 77.5086 11.941ZM89.9483 9.2989C89.2507 8.6055 87.8975 8.06662 86.3834 8.06662C82.8594 8.06662 81.1883 9.60665 81.1883 13.172C81.1883 16.6045 82.5217 18.2415 86.2845 18.2415C87.8381 18.2415 89.1715 17.8763 89.9088 17.4332L89.3113 15.5037C88.5741 15.8523 87.639 16.1013 86.5443 16.1013C84.992 16.1013 83.9949 15.2739 83.9949 13.2115C83.9949 10.9768 84.8522 10.1455 86.4045 10.1455C87.2605 10.1455 87.9964 10.4929 88.4738 10.9181L89.9483 9.2989ZM98.5593 8.25944H95.1948V5.92769L92.3461 6.38357V8.25944H90.6157V10.4392H92.3461V14.7184C92.3461 17.2813 93.1638 18.2071 95.4718 18.2071C96.767 18.2071 98.0014 17.9364 98.9563 17.4345L98.5382 15.4297C97.9223 15.74 97.1059 15.9123 96.5282 15.9123C95.5523 15.9123 95.1948 15.602 95.1948 14.3698V10.4571H98.5593V8.25944ZM99.9877 8.25944V17.9747H102.873V11.2846C103.372 10.6678 104.289 10.2822 105.222 10.2822C105.742 10.2822 106.318 10.4175 106.637 10.5912L107.294 8.33479C106.855 8.10493 106.12 8.0066 105.444 8.0066C104.467 8.0066 103.258 8.43184 102.641 9.22356L102.643 8.25817H99.9877V8.25944ZM112.265 8.00788C108.601 8.00788 107.046 9.6871 107.046 13.0787C107.046 16.2597 108.163 18.2071 111.846 18.2071C115.409 18.2071 117.08 16.5674 117.08 13.1758C117.08 9.86077 115.967 8.00788 112.265 8.00788ZM114.155 13.0021C114.155 15.2394 113.717 16.1818 111.906 16.1818C110.392 16.1818 109.976 15.044 109.976 13.0992C109.976 10.9015 110.452 10.0319 112.204 10.0319C113.817 10.0319 114.155 11.1901 114.155 13.0021ZM118.118 8.25944V17.9747H121.005V10.8223C121.364 10.5733 122.082 10.3218 122.679 10.3218C124.092 10.3218 124.391 10.8619 124.391 11.941V17.9747H127.277V11.2693C127.277 9.32061 126.559 8.02831 124.151 8.02831C123.036 8.02831 121.859 8.29903 120.825 8.91836V8.89665V8.25944H118.118ZM128.688 6.15755H131.614V3.90369H128.688V6.15755ZM128.709 17.9747H131.595V8.25944H128.709V17.9747ZM141.332 9.26059C140.633 8.56592 139.28 8.02704 137.766 8.02704C134.244 8.02704 132.571 9.56962 132.571 13.1362C132.571 16.5662 133.907 18.2058 137.667 18.2058C139.219 18.2058 140.555 17.8393 141.291 17.3962L140.694 15.468C139.958 15.8153 139.021 16.0656 137.927 16.0656C136.373 16.0656 135.379 15.2381 135.379 13.1745C135.379 10.9385 136.234 10.1098 137.787 10.1098C138.644 10.1098 139.38 10.4558 139.857 10.8798L141.332 9.26059ZM150.43 8.87622C149.253 8.35649 148.12 8.02831 146.489 8.02831C143.681 8.02831 142.187 9.18525 142.187 10.9781C142.187 12.8093 143.401 13.6381 144.955 13.9841L146.089 14.2344C147.105 14.4464 147.74 14.7758 147.74 15.2573C147.74 15.8549 147.105 16.1639 146.189 16.1639C145.034 16.1639 143.681 15.7974 142.845 15.3352L142.106 17.3387C143.123 17.8597 144.397 18.2441 146.17 18.2441C148.857 18.2441 150.51 17.2238 150.51 15.0823C150.51 13.6572 149.593 12.8489 148.379 12.5016C148.04 12.4045 147.423 12.2308 146.986 12.1351C145.93 11.9231 144.876 11.7086 144.876 10.9398C144.876 10.3601 145.511 10.0523 146.547 10.0523C147.702 10.0523 148.817 10.3409 149.612 10.7649L150.43 8.87622Z" fill="#252525"/>
<path d="M32.0165 18.0086H38.152V15.2785H31.2252V3.9964H27.8845V18.0086H32.0165Z" fill="#252525"/>
<path d="M45.5086 12.6669H48.2321V15.1161C47.7296 15.3026 46.751 15.4864 45.8186 15.4864C42.8102 15.4864 41.8065 14.0064 41.8065 11.0017C41.8065 8.13491 42.7614 6.44675 45.7698 6.44675C47.4434 6.44675 48.3983 6.95498 49.1857 7.92548L51.2643 6.07642C49.9981 4.31931 47.7771 3.78809 45.6999 3.78809C41.0179 3.78809 38.5581 6.26031 38.5581 10.9774C38.5581 15.6729 40.7791 18.2166 45.6748 18.2166C47.9196 18.2166 50.1181 17.6611 51.3117 16.8515V10.0542H45.5086V12.6669Z" fill="#252525"/>
<path d="M11.6846 21.8396C17.8675 21.8396 22.8793 16.9845 22.8793 11.0006C22.8793 5.0129 17.8675 0.1604 11.6846 0.1604C5.50171 0.1604 0.48996 5.0129 0.48996 11.0006C0.48996 16.9845 5.50171 21.8396 11.6846 21.8396Z" fill="#A51B37"/>
<path d="M11.2401 6.24622V15.7495H14.358V14.9003H12.1291V6.24622H11.2401Z" fill="white"/>
<path d="M8.11063 8.83784C8.85184 8.83784 9.45457 8.25427 9.45457 7.53916C9.45457 6.82278 8.85184 6.24048 8.11063 6.24048C7.37206 6.24048 6.76933 6.82278 6.76933 7.53916C6.76933 8.25427 7.37206 8.83784 8.11063 8.83784Z" fill="white"/>
<path d="M12.1293 1.93143C12.0172 1.92633 11.7943 1.92505 11.6848 1.92505C6.52139 1.92505 2.31811 5.99476 2.31811 10.9979C2.31811 13.4204 3.28749 15.6985 5.05611 17.4109C6.83133 19.1272 9.18553 20.0708 11.6848 20.0708C14.1854 20.0708 16.5396 19.1272 18.3122 17.4109C20.0808 15.6985 21.0528 13.4204 21.0528 10.9979V10.5855H20.6783H14.3648V11.4296H20.1639V11.5509C19.8658 15.8287 16.1756 19.2217 11.6848 19.2217C9.41765 19.2217 7.28634 18.3674 5.67994 16.8146C4.07486 15.2605 3.19121 13.1943 3.19121 10.9979C3.19121 8.80283 4.07486 6.73541 5.67994 5.18133C7.28634 3.62598 9.41765 2.77168 11.6848 2.77168C11.7877 2.77168 12.0277 2.77424 12.1293 2.77679V1.93143Z" fill="white"/>
</svg>
