<svg width="31" height="30" viewBox="0 0 31 30" fill="none" xmlns="http://www.w3.org/2000/svg">
<path fill-rule="evenodd" clip-rule="evenodd" d="M23.4542 5.03113C23.2661 5.05414 23.0177 5.13502 22.8463 5.22913C22.6499 5.3369 17.5877 8.93769 17.4404 9.07442C17.2198 9.279 17.0596 9.54503 16.9613 9.86949C16.9138 10.0263 16.9067 10.0862 16.9056 10.3357C16.9043 10.6431 16.9326 10.8002 17.0288 11.0193C17.0557 11.0803 17.0751 11.1376 17.072 11.1465C17.0689 11.1555 16.7456 11.3908 16.3535 11.6695C15.73 12.1126 15.6347 12.1875 15.5933 12.2663L15.546 12.3564V14.4073V16.4582L15.2518 16.7282L14.9576 16.9983L15.0688 17.1002C15.2043 17.2242 15.2633 17.3229 15.3219 17.5238C15.3466 17.6082 15.3707 17.6838 15.3756 17.692C15.3885 17.7134 16.2711 16.8952 16.304 16.8313C16.3266 16.7873 16.3336 16.398 16.3419 14.7222L16.3521 12.667L16.944 12.2415C17.2695 12.0075 17.5471 11.811 17.5609 11.8049C17.5747 11.7988 17.6298 11.8258 17.6834 11.8651C18.2312 12.2663 19.0131 12.3102 19.5886 11.9722C19.6534 11.9342 20.1318 11.6006 20.6517 11.2309C21.1716 10.8611 22.3223 10.0438 23.2088 9.41454C24.0952 8.78528 24.879 8.21561 24.9505 8.14861C25.186 7.92784 25.3578 7.63731 25.4469 7.30911C25.4827 7.17712 25.4913 7.09017 25.491 6.85921C25.4907 6.60882 25.4839 6.55038 25.4366 6.3932C25.2101 5.64101 24.6112 5.1186 23.8731 5.0294C23.6807 5.00615 23.6578 5.00625 23.4542 5.03113ZM10.9656 15.9829C10.6526 16.0501 10.4407 16.176 10.188 16.4449C9.91901 16.731 9.74478 17.0711 9.71719 17.3637C9.68421 17.7136 9.57527 17.9439 9.32154 18.1998C9.08593 18.4375 8.82587 18.6046 8.27605 18.8713C7.52842 19.2339 7.04783 19.5176 6.68817 19.8087C6.22187 20.186 5.85664 20.6814 5.70003 21.1489C5.59144 21.473 5.49201 22.1838 5.51117 22.4991C5.52574 22.7389 5.54927 22.8154 5.6463 22.9384C5.82087 23.1597 6.05021 23.2501 6.47458 23.265C6.72329 23.2737 6.77785 23.2696 6.89581 23.2331C7.10529 23.1682 7.42934 22.9985 8.06095 22.6229C8.6245 22.2877 9.05501 22.0904 9.39295 22.0122C9.46029 21.9966 9.67874 21.9603 9.87842 21.9314C10.6317 21.8225 11.3082 21.6579 13.1583 21.1334C15.6563 20.4251 16.6182 20.0868 16.6789 19.8952C16.7003 19.8278 16.5967 19.6804 16.4209 19.5281C16.3358 19.4544 16.0927 19.2705 15.8806 19.1196C15.2961 18.7036 15.113 18.5586 14.9394 18.3741C14.7115 18.132 14.6131 17.9502 14.5256 17.6096C14.4768 17.4195 14.32 17.31 13.8574 17.1432C13.4908 17.0109 13.2036 16.8566 12.9848 16.6743C12.5448 16.3077 12.3186 16.1651 12.0093 16.0594C11.6925 15.9511 11.2609 15.9195 10.9656 15.9829ZM15.4253 17.8139C15.5527 18.0649 15.7467 18.2429 16.3998 18.7078C16.8953 19.0605 17.0652 19.1927 17.2064 19.3356C17.4714 19.6038 17.5447 19.8379 17.4364 20.0709C17.2809 20.4053 16.7897 20.6099 14.597 21.253C12.3384 21.9155 11.1499 22.2137 10.2628 22.3404C10.065 22.3686 9.83523 22.4102 9.75221 22.4329C9.43958 22.5184 9.09448 22.6825 8.52215 23.0178C8.11229 23.258 7.6996 23.4624 7.35213 23.5973L7.12764 23.6845L6.86234 23.6713C6.71642 23.664 6.56489 23.6534 6.5256 23.6476L6.45417 23.6371L6.05211 24.3126C5.83099 24.684 5.65836 24.988 5.66848 24.988C5.6786 24.988 6.51615 24.7251 7.5297 24.4036C8.54327 24.0822 10.1807 23.5632 11.1685 23.2501C13.62 22.4733 16.2318 21.6453 17.944 21.1022C18.7297 20.853 19.5814 20.5832 19.8367 20.5026C20.092 20.422 20.3009 20.3515 20.3009 20.3459C20.301 20.3379 17.6433 18.922 15.6635 17.8752L15.3806 17.7257L15.4253 17.8139Z" fill="#1374CF"/>
</svg>
