<svg width="24" height="25" viewBox="0 0 24 25" fill="none" xmlns="http://www.w3.org/2000/svg">
<path fill-rule="evenodd" clip-rule="evenodd" d="M9.68475 4.0508C9.07594 3.24922 7.96673 2.91709 7.00971 3.40722C6.53912 3.64823 5.96845 3.96954 5.45497 4.34178C3.35709 5.8626 3.20258 8.73193 4.60101 10.7276C5.53634 12.0624 6.89567 13.7598 8.81707 15.6812C10.7383 17.6024 12.4356 18.9617 13.7703 19.897C15.7676 21.2966 18.6344 21.1431 20.1565 19.0433C20.5373 18.518 20.8584 17.9496 21.0977 17.4818C21.5867 16.5262 21.2507 15.4236 20.4543 14.8187L18.7338 13.5119C17.6441 12.6843 16.1106 12.7886 15.1431 13.7562C15.048 13.8513 14.8939 13.8513 14.7988 13.7562L10.7421 9.69951C10.647 9.60443 10.647 9.45029 10.7421 9.35521C11.7096 8.38766 11.814 6.8542 10.9863 5.76453L9.68475 4.0508ZM7.69346 4.74232C7.94329 4.61437 8.27893 4.67986 8.49022 4.95805L9.79182 6.67179C10.1658 7.16425 10.1187 7.85728 9.68143 8.29455C9.00057 8.97541 9.00057 10.0793 9.68143 10.7602L13.7381 14.8169C14.419 15.4977 15.5229 15.4977 16.2037 14.8169C16.641 14.3796 17.334 14.3324 17.8265 14.7065L19.547 16.0132C19.824 16.2236 19.8874 16.5542 19.7624 16.7985C19.543 17.2272 19.2615 17.7223 18.942 18.1629C17.9888 19.4779 16.0878 19.6894 14.6311 18.6686C13.3667 17.7825 11.7364 16.4792 9.87772 14.6206C8.01889 12.7617 6.71552 11.1313 5.82943 9.86679C4.81001 8.412 5.02204 6.50831 6.33537 5.55624C6.76241 5.24665 7.25855 4.96505 7.69346 4.74232Z" fill="#1374CF"/>
<path d="M15.1235 3.51057C14.7149 3.44247 14.3285 3.71849 14.2604 4.12707C14.1923 4.53564 14.4683 4.92207 14.8769 4.99016L15.1495 5.03559C17.3622 5.40438 19.0961 7.13833 19.4649 9.35107L19.5104 9.62367C19.5785 10.0322 19.9649 10.3083 20.3735 10.2402C20.782 10.1721 21.0581 9.78564 20.99 9.37707L20.9445 9.10447C20.4704 6.25953 18.241 4.03016 15.3961 3.556L15.1235 3.51057Z" fill="#1374CF"/>
<path d="M14.3562 6.5079C13.9462 6.44933 13.5663 6.73425 13.5077 7.1443C13.4491 7.55435 13.734 7.93425 14.1441 7.99283L14.5417 8.04963C15.5317 8.19105 16.3095 8.96887 16.4509 9.95882L16.5077 10.3564C16.5663 10.7665 16.9462 11.0514 17.3562 10.9928C17.7663 10.9342 18.0512 10.5544 17.9926 10.1443L17.9358 9.74669C17.7001 8.09677 16.4038 6.80041 14.7538 6.56471L14.3562 6.5079Z" fill="#1374CF"/>
</svg>
