<svg width="31" height="30" viewBox="0 0 31 30" fill="none" xmlns="http://www.w3.org/2000/svg">
<path fill-rule="evenodd" clip-rule="evenodd" d="M14.5713 4.64586C13.9887 5.49669 13.9542 6.4558 14.4868 6.99719C14.6836 7.19721 17.1276 9.3109 19.918 11.6941C22.7084 14.0774 25.1265 16.1551 25.2916 16.3113C25.5842 16.5881 25.5899 16.5812 25.5185 16.044L25.4452 15.4926L25.5869 16.015C25.7812 16.7311 26.2377 16.7049 26.671 15.9528C27.0639 15.2711 27.1106 14.3948 26.7802 13.9034C26.4906 13.4725 15.3892 4 15.174 4C15.0858 4 14.8146 4.29064 14.5713 4.64586ZM9.15403 11.6504C6.31054 14.077 3.99118 16.1479 4.00003 16.2524C4.00887 16.3569 6.5326 18.5929 9.6083 21.2212L15.2004 26L20.3888 21.4273C23.2424 18.9122 25.5624 16.8339 25.5445 16.8088C25.4971 16.7425 14.3677 7.22837 14.3441 7.23387C14.3331 7.23634 11.9976 9.22389 9.15403 11.6504ZM18.1728 12.1033C20.4563 14.0527 22.3224 15.6983 22.3197 15.76C22.317 15.822 20.9574 17.0193 19.2982 18.421L16.2817 20.9693L15.6282 20.4289C13.9695 19.0572 14.0218 19.0877 13.7523 19.3318C13.5482 19.5167 13.4185 19.5038 13.092 19.2659C12.6857 18.97 11.8319 18.9768 11.3646 19.2798C11.233 19.3651 11.137 19.348 11.137 19.2393C11.137 18.8347 12.5289 18.6601 13.1232 18.9901C13.5699 19.238 13.8362 18.9426 13.4172 18.6639C13.0203 18.3999 13.0067 18.2238 13.3485 17.7721C13.665 17.3538 13.6788 16.9653 13.3934 16.5049C13.1967 16.1874 13.1963 16.1574 13.3888 16.1574C13.8289 16.1574 14.0129 17.3198 13.6623 17.8855C13.4691 18.1974 13.5422 18.2928 14.7976 19.3657L16.1396 20.5126L16.8731 19.9023C19.85 17.4252 21.6669 15.8552 21.6703 15.7574C21.6724 15.6939 20.6495 14.7722 19.3971 13.709C17.4632 12.067 17.0805 11.8066 16.8576 11.9808C16.5141 12.2494 16.2504 12.0214 16.5432 11.7089C16.7324 11.5068 16.5787 11.3203 15.3837 10.3025C14.626 9.657 13.9658 9.12891 13.9163 9.12891C13.867 9.12891 13.3603 9.52802 12.7904 10.016C11.5932 11.0409 11.5444 10.845 13.3798 12.3824C14.1379 13.0172 14.601 13.2959 14.7688 13.218C14.9073 13.1538 15.3183 13.2434 15.682 13.4173C16.2131 13.6709 16.4514 13.6931 16.8907 13.5303C17.5207 13.2968 17.7155 13.3941 17.1957 13.6826C16.7458 13.9324 15.9364 13.933 15.4877 13.684C15.1748 13.5101 14.9474 13.6526 13.3194 15.0426C11.8947 16.2587 11.5462 16.6327 11.7117 16.768C12.0939 17.0802 11.7878 17.3073 11.3897 17.0067C11.1791 16.8477 11.0069 16.6848 11.0069 16.6445C11.0069 16.6044 11.7389 15.9475 12.6334 15.1846C14.4183 13.6627 14.3945 13.7415 13.3377 12.8578L12.7416 12.3594L12.5756 12.8122C12.4682 13.1052 12.304 13.256 12.111 13.2391C11.9468 13.2248 11.8365 13.1562 11.8657 13.0867C11.8951 13.0174 11.8456 12.9215 11.7557 12.8738C11.6658 12.8259 11.8143 12.723 12.0858 12.6449C12.6817 12.4733 12.662 12.2982 11.9801 11.7046L11.4596 11.2513L10.6476 11.9173C10.201 12.2836 9.86431 12.6511 9.89944 12.7342C9.93456 12.8172 10.1794 12.9443 10.4436 13.0166C10.7656 13.1048 10.8676 13.199 10.7531 13.3023C10.4677 13.5599 11.0842 13.7394 11.4247 13.498C11.6891 13.3107 11.6974 13.3168 11.4993 13.5512C11.323 13.7596 11.3093 13.8665 11.4342 14.0597C11.5626 14.2584 11.5374 14.2631 11.2996 14.0844C11.1387 13.9636 11.0069 13.9165 11.0069 13.9797C11.0069 14.0432 10.9115 13.9558 10.795 13.7856C10.6784 13.6154 10.5055 13.5196 10.4108 13.5726C10.3161 13.6256 10.127 13.4452 9.99037 13.1714L9.74216 12.6739L7.83987 14.2732C6.79343 15.1527 5.93653 15.9156 5.93536 15.9682C5.93432 16.021 7.16783 17.116 8.6766 18.4018C11.0121 20.3918 11.4762 20.7212 11.7987 20.6179C12.2759 20.4648 12.2854 20.6255 11.8199 20.9767C11.4723 21.2388 11.3772 21.1743 8.47015 18.6998C6.82452 17.2991 5.46535 16.0898 5.44961 16.0127C5.42853 15.9088 13.7268 8.67206 13.9775 8.57575C14.0014 8.56663 15.8893 10.1539 18.1728 12.1033ZM26.3907 14.0734C26.2302 14.1676 25.9816 14.5255 25.8383 14.8685C25.6951 15.2118 25.5776 15.3923 25.5774 15.2697C25.5766 14.8991 26.2353 13.8771 26.4665 13.8899C26.6188 13.8984 26.5964 13.9528 26.3907 14.0734ZM12.3891 14.9622C12.3722 14.9871 12.1298 14.9153 11.8508 14.8028L11.3433 14.5982L11.6629 14.3439C11.9496 14.1157 12.0051 14.1323 12.2014 14.5033C12.3216 14.7308 12.4061 14.9373 12.3891 14.9622ZM19.71 14.7871C19.6197 14.9985 19.4214 15.1523 19.2582 15.1381C19.0982 15.124 18.9944 15.0484 19.0275 14.9702C19.0607 14.8919 19.0111 14.8188 18.9175 14.8078C18.8238 14.7967 18.9813 14.6799 19.2675 14.5481C19.8804 14.2658 19.9232 14.2888 19.71 14.7871ZM15.1402 14.5686C15.4177 14.6773 15.4217 14.7002 15.2053 14.94C14.8921 15.2868 14.8117 15.2707 14.6494 14.8277C14.4965 14.4106 14.5985 14.3568 15.1402 14.5686ZM26.6176 15.2247C26.6176 15.6443 26.2745 15.9224 26.0897 15.6525C25.9415 15.4361 26.3219 14.5832 26.4963 14.7407C26.5631 14.8009 26.6176 15.0188 26.6176 15.2247ZM15.8202 15.5059C15.8202 15.5581 15.7031 15.5095 15.56 15.3976C15.4169 15.2857 15.2998 15.1516 15.2998 15.0993C15.2998 15.0471 15.4169 15.0957 15.56 15.2076C15.7031 15.3195 15.8202 15.4536 15.8202 15.5059ZM18.8122 15.2977C18.8122 15.3472 18.6366 15.5205 18.422 15.6825C17.9327 16.052 17.9032 15.8915 18.3894 15.5062C18.7983 15.1824 18.8122 15.1755 18.8122 15.2977ZM16.7308 16.2621C16.7308 16.3143 16.5552 16.2245 16.3405 16.0624C16.1259 15.9004 15.9503 15.7251 15.9503 15.6728C15.9503 15.6206 16.1259 15.7105 16.3405 15.8725C16.5552 16.0345 16.7308 16.2099 16.7308 16.2621ZM17.7142 16.2585C17.5752 16.4118 17.4031 16.5373 17.3316 16.5373C17.26 16.5373 17.315 16.6703 17.454 16.8327C17.6978 17.1181 17.6967 17.1213 17.4217 16.9273C17.1963 16.7681 17.0406 16.8094 16.6737 17.1255C16.419 17.3451 16.2105 17.4757 16.2105 17.4157C16.2105 17.3559 16.388 17.1729 16.605 17.009C16.834 16.8362 16.962 16.6224 16.9101 16.4999C16.8566 16.3736 16.8798 16.3421 16.9678 16.4215C17.0487 16.4944 17.2773 16.4256 17.4757 16.2684C17.9352 15.9046 18.0385 15.9002 17.7142 16.2585ZM8.22766 16.4412C8.43255 16.5972 8.53441 16.7254 8.45389 16.7262C8.37336 16.7267 8.11787 16.7828 7.88618 16.8504C7.48654 16.967 7.47249 16.9522 7.61429 16.5655C7.79225 16.0799 7.76142 16.0862 8.22766 16.4412ZM23.2245 16.6054C23.1947 16.6428 21.9409 17.7252 20.4383 19.0106C18.9358 20.2961 17.5601 21.4778 17.3813 21.6368C17.1645 21.8294 17.1078 21.8418 17.2112 21.6739C17.407 21.3562 23.151 16.3897 23.2245 16.4747C23.2543 16.509 23.2543 16.5679 23.2245 16.6054ZM18.6321 17.6505C18.8419 18.0882 18.8397 18.0956 18.537 17.9677C18.3664 17.8957 18.1341 17.7996 18.0209 17.7542C17.7026 17.6266 17.7776 17.1843 18.116 17.1938C18.2816 17.1984 18.5138 17.4039 18.6321 17.6505ZM23.9443 17.2658C23.7278 17.5438 18.2091 22.2225 17.9526 22.3456C17.8172 22.4105 18.6138 21.6739 19.7229 20.7085C20.8319 19.7431 22.2076 18.5441 22.78 18.0439C23.7317 17.2123 24.2622 16.8578 23.9443 17.2658ZM15.8929 17.7782C15.754 17.9315 15.593 18.057 15.5352 18.057C15.4773 18.057 15.4445 18.1541 15.4624 18.273C15.4955 18.492 14.7813 18.8828 14.6632 18.7103C14.6278 18.6586 14.7273 18.4288 14.8843 18.1995C15.0413 17.9702 15.1697 17.8859 15.1697 18.012C15.1697 18.1611 15.3178 18.1096 15.5925 17.865C16.0861 17.4256 16.2568 17.3762 15.8929 17.7782Z" fill="#1374CF"/>
</svg>
