<svg width="17" height="20" viewBox="0 0 17 20" fill="none" xmlns="http://www.w3.org/2000/svg">
<path d="M7.68831 3.83965C7.74519 3.79068 7.81168 3.75561 7.88297 3.73697C7.95427 3.71833 8.0286 3.71657 8.10062 3.73184L13.0681 4.77854C13.1807 4.80225 13.282 4.86629 13.3548 4.9598C13.4276 5.0533 13.4675 5.17048 13.4675 5.29143V14.7086C13.4675 14.8295 13.4276 14.9467 13.3548 15.0402C13.282 15.1337 13.1807 15.1978 13.0681 15.2215L8.10062 16.2682C8.02858 16.2834 7.95424 16.2815 7.88296 16.2628C7.81168 16.244 7.74524 16.2089 7.68841 16.1598C7.63159 16.1107 7.5858 16.049 7.55434 15.9791C7.52288 15.9091 7.50654 15.8327 7.5065 15.7553V4.24472L7.68831 3.83965ZM10.487 9.99949C10.487 9.86069 10.4347 9.72757 10.3415 9.62943C10.2484 9.53128 10.122 9.47614 9.99027 9.47614C9.85852 9.47614 9.73217 9.53128 9.63901 9.62943C9.54585 9.72757 9.49351 9.86069 9.49351 9.99949C9.49351 10.1383 9.54585 10.2714 9.63901 10.3696C9.73217 10.4677 9.85852 10.5228 9.99027 10.5228C10.122 10.5228 10.2484 10.4677 10.3415 10.3696C10.4347 10.2714 10.487 10.1383 10.487 9.99949Z" fill="#0C4B86"/>
<path d="M6.51299 4.76807H4.02922C3.89748 4.76807 3.77113 4.82321 3.67797 4.92135C3.58481 5.0195 3.53247 5.15262 3.53247 5.29142V14.7086C3.53247 14.8474 3.58481 14.9805 3.67797 15.0787C3.77113 15.1768 3.89748 15.2319 4.02922 15.2319H6.51299V4.76807Z" fill="#0C4B86"/>
<path d="M7.68831 3.8396C7.63143 3.88873 7.58562 3.95055 7.55418 4.0206C7.52274 4.09065 7.50645 4.16719 7.5065 4.24467L7.68831 3.8396Z" fill="#0C4B86"/>
</svg>
