<svg width="20" height="20" viewBox="0 0 20 20" fill="none" xmlns="http://www.w3.org/2000/svg">
<path d="M4 5.33333V16H8V15H6.66667V14H8V13H5.33333V12H8V11H6.66667V10H8V9H5.33333V8H8V5.33333H9V8H10V6.66667H11V8H12V5.33333H13V8H14V6.66667H15V8H16V4H5.33333C4.97971 4 4.64057 4.14048 4.39052 4.39052C4.14048 4.64057 4 4.97971 4 5.33333ZM6 6.66667C5.82319 6.66667 5.65362 6.59643 5.5286 6.4714C5.40357 6.34638 5.33333 6.17681 5.33333 6C5.33333 5.82319 5.40357 5.65362 5.5286 5.5286C5.65362 5.40357 5.82319 5.33333 6 5.33333C6.17681 5.33333 6.34638 5.40357 6.4714 5.5286C6.59643 5.65362 6.66667 5.82319 6.66667 6C6.66667 6.17681 6.59643 6.34638 6.4714 6.4714C6.34638 6.59643 6.17681 6.66667 6 6.66667Z" fill="#0C4B86"/>
</svg>
